<mxfile host="www.draw.io" modified="2019-11-28T14:13:22.265Z" agent="Mozilla/5.0 (X11; Linux x86_64) AppleWebKit/537.36 (KHTML, like Gecko) Chrome/77.0.3865.90 Safari/537.36" etag="PcNQu175f_zlshwLZy4G" version="12.3.3" type="github" pages="1">
  <diagram name="Page-1" id="c4acf3e9-155e-7222-9cf6-157b1a14988f">
    <mxGraphModel dx="2193" dy="714" grid="1" gridSize="10" guides="1" tooltips="1" connect="1" arrows="1" fold="1" page="1" pageScale="1" pageWidth="850" pageHeight="1100" background="#ffffff" math="0" shadow="0">
      <root>
        <mxCell id="0"/>
        <mxCell id="1" parent="0"/>
        <mxCell id="olElqUPnL_aV7rSpQFlY-1" value="Game" style="swimlane;fontStyle=3;align=center;verticalAlign=top;childLayout=stackLayout;horizontal=1;startSize=26;horizontalStack=0;resizeParent=1;resizeParentMax=0;resizeLast=0;collapsible=1;marginBottom=0;" parent="1" vertex="1">
          <mxGeometry x="20" y="106" width="160" height="86" as="geometry"/>
        </mxCell>
        <mxCell id="olElqUPnL_aV7rSpQFlY-2" value="+ field: type" style="text;strokeColor=none;fillColor=none;align=left;verticalAlign=top;spacingLeft=4;spacingRight=4;overflow=hidden;rotatable=0;points=[[0,0.5],[1,0.5]];portConstraint=eastwest;" parent="olElqUPnL_aV7rSpQFlY-1" vertex="1">
          <mxGeometry y="26" width="160" height="26" as="geometry"/>
        </mxCell>
        <mxCell id="olElqUPnL_aV7rSpQFlY-3" value="" style="line;strokeWidth=1;fillColor=none;align=left;verticalAlign=middle;spacingTop=-1;spacingLeft=3;spacingRight=3;rotatable=0;labelPosition=right;points=[];portConstraint=eastwest;" parent="olElqUPnL_aV7rSpQFlY-1" vertex="1">
          <mxGeometry y="52" width="160" height="8" as="geometry"/>
        </mxCell>
        <mxCell id="olElqUPnL_aV7rSpQFlY-4" value="+ method(type): type" style="text;strokeColor=none;fillColor=none;align=left;verticalAlign=top;spacingLeft=4;spacingRight=4;overflow=hidden;rotatable=0;points=[[0,0.5],[1,0.5]];portConstraint=eastwest;" parent="olElqUPnL_aV7rSpQFlY-1" vertex="1">
          <mxGeometry y="60" width="160" height="26" as="geometry"/>
        </mxCell>
        <mxCell id="olElqUPnL_aV7rSpQFlY-5" value="Controller" style="swimlane;fontStyle=3;align=center;verticalAlign=top;childLayout=stackLayout;horizontal=1;startSize=26;horizontalStack=0;resizeParent=1;resizeParentMax=0;resizeLast=0;collapsible=1;marginBottom=0;" parent="1" vertex="1">
          <mxGeometry x="290" y="20" width="160" height="86" as="geometry"/>
        </mxCell>
        <mxCell id="olElqUPnL_aV7rSpQFlY-6" value="+ field: type" style="text;strokeColor=none;fillColor=none;align=left;verticalAlign=top;spacingLeft=4;spacingRight=4;overflow=hidden;rotatable=0;points=[[0,0.5],[1,0.5]];portConstraint=eastwest;" parent="olElqUPnL_aV7rSpQFlY-5" vertex="1">
          <mxGeometry y="26" width="160" height="26" as="geometry"/>
        </mxCell>
        <mxCell id="olElqUPnL_aV7rSpQFlY-7" value="" style="line;strokeWidth=1;fillColor=none;align=left;verticalAlign=middle;spacingTop=-1;spacingLeft=3;spacingRight=3;rotatable=0;labelPosition=right;points=[];portConstraint=eastwest;" parent="olElqUPnL_aV7rSpQFlY-5" vertex="1">
          <mxGeometry y="52" width="160" height="8" as="geometry"/>
        </mxCell>
        <mxCell id="olElqUPnL_aV7rSpQFlY-8" value="+ method(type): type" style="text;strokeColor=none;fillColor=none;align=left;verticalAlign=top;spacingLeft=4;spacingRight=4;overflow=hidden;rotatable=0;points=[[0,0.5],[1,0.5]];portConstraint=eastwest;" parent="olElqUPnL_aV7rSpQFlY-5" vertex="1">
          <mxGeometry y="60" width="160" height="26" as="geometry"/>
        </mxCell>
        <mxCell id="olElqUPnL_aV7rSpQFlY-9" value="BombermanGame" style="swimlane;fontStyle=1;align=center;verticalAlign=top;childLayout=stackLayout;horizontal=1;startSize=26;horizontalStack=0;resizeParent=1;resizeParentMax=0;resizeLast=0;collapsible=1;marginBottom=0;" parent="1" vertex="1">
          <mxGeometry x="20" y="276" width="160" height="86" as="geometry"/>
        </mxCell>
        <mxCell id="olElqUPnL_aV7rSpQFlY-10" value="+ field: type" style="text;strokeColor=none;fillColor=none;align=left;verticalAlign=top;spacingLeft=4;spacingRight=4;overflow=hidden;rotatable=0;points=[[0,0.5],[1,0.5]];portConstraint=eastwest;" parent="olElqUPnL_aV7rSpQFlY-9" vertex="1">
          <mxGeometry y="26" width="160" height="26" as="geometry"/>
        </mxCell>
        <mxCell id="olElqUPnL_aV7rSpQFlY-11" value="" style="line;strokeWidth=1;fillColor=none;align=left;verticalAlign=middle;spacingTop=-1;spacingLeft=3;spacingRight=3;rotatable=0;labelPosition=right;points=[];portConstraint=eastwest;" parent="olElqUPnL_aV7rSpQFlY-9" vertex="1">
          <mxGeometry y="52" width="160" height="8" as="geometry"/>
        </mxCell>
        <mxCell id="olElqUPnL_aV7rSpQFlY-12" value="+ method(type): type" style="text;strokeColor=none;fillColor=none;align=left;verticalAlign=top;spacingLeft=4;spacingRight=4;overflow=hidden;rotatable=0;points=[[0,0.5],[1,0.5]];portConstraint=eastwest;" parent="olElqUPnL_aV7rSpQFlY-9" vertex="1">
          <mxGeometry y="60" width="160" height="26" as="geometry"/>
        </mxCell>
        <mxCell id="olElqUPnL_aV7rSpQFlY-19" value="Extends" style="endArrow=block;endSize=16;endFill=0;html=1;exitX=0.5;exitY=0;exitDx=0;exitDy=0;" parent="1" source="olElqUPnL_aV7rSpQFlY-9" edge="1">
          <mxGeometry width="160" relative="1" as="geometry">
            <mxPoint x="20" y="233.5" as="sourcePoint"/>
            <mxPoint x="100" y="196" as="targetPoint"/>
          </mxGeometry>
        </mxCell>
        <mxCell id="olElqUPnL_aV7rSpQFlY-24" value="BombermanController" style="swimlane;fontStyle=1;align=center;verticalAlign=top;childLayout=stackLayout;horizontal=1;startSize=26;horizontalStack=0;resizeParent=1;resizeParentMax=0;resizeLast=0;collapsible=1;marginBottom=0;" parent="1" vertex="1">
          <mxGeometry x="290" y="190" width="160" height="86" as="geometry"/>
        </mxCell>
        <mxCell id="olElqUPnL_aV7rSpQFlY-25" value="+ field: type" style="text;strokeColor=none;fillColor=none;align=left;verticalAlign=top;spacingLeft=4;spacingRight=4;overflow=hidden;rotatable=0;points=[[0,0.5],[1,0.5]];portConstraint=eastwest;" parent="olElqUPnL_aV7rSpQFlY-24" vertex="1">
          <mxGeometry y="26" width="160" height="26" as="geometry"/>
        </mxCell>
        <mxCell id="olElqUPnL_aV7rSpQFlY-26" value="" style="line;strokeWidth=1;fillColor=none;align=left;verticalAlign=middle;spacingTop=-1;spacingLeft=3;spacingRight=3;rotatable=0;labelPosition=right;points=[];portConstraint=eastwest;" parent="olElqUPnL_aV7rSpQFlY-24" vertex="1">
          <mxGeometry y="52" width="160" height="8" as="geometry"/>
        </mxCell>
        <mxCell id="olElqUPnL_aV7rSpQFlY-27" value="+ method(type): type" style="text;strokeColor=none;fillColor=none;align=left;verticalAlign=top;spacingLeft=4;spacingRight=4;overflow=hidden;rotatable=0;points=[[0,0.5],[1,0.5]];portConstraint=eastwest;" parent="olElqUPnL_aV7rSpQFlY-24" vertex="1">
          <mxGeometry y="60" width="160" height="26" as="geometry"/>
        </mxCell>
        <mxCell id="olElqUPnL_aV7rSpQFlY-28" value="Extends" style="endArrow=block;endSize=16;endFill=0;html=1;exitX=0.5;exitY=0;exitDx=0;exitDy=0;entryX=0.5;entryY=1.154;entryDx=0;entryDy=0;entryPerimeter=0;" parent="1" edge="1">
          <mxGeometry width="160" relative="1" as="geometry">
            <mxPoint x="369" y="190" as="sourcePoint"/>
            <mxPoint x="369" y="110.0039999999999" as="targetPoint"/>
          </mxGeometry>
        </mxCell>
        <mxCell id="olElqUPnL_aV7rSpQFlY-34" value="AbstractAgent" style="swimlane;fontStyle=3;align=center;verticalAlign=top;childLayout=stackLayout;horizontal=1;startSize=26;horizontalStack=0;resizeParent=1;resizeParentMax=0;resizeLast=0;collapsible=1;marginBottom=0;" parent="1" vertex="1">
          <mxGeometry x="280" y="550" width="160" height="86" as="geometry"/>
        </mxCell>
        <mxCell id="olElqUPnL_aV7rSpQFlY-35" value="+ field: type" style="text;strokeColor=none;fillColor=none;align=left;verticalAlign=top;spacingLeft=4;spacingRight=4;overflow=hidden;rotatable=0;points=[[0,0.5],[1,0.5]];portConstraint=eastwest;" parent="olElqUPnL_aV7rSpQFlY-34" vertex="1">
          <mxGeometry y="26" width="160" height="26" as="geometry"/>
        </mxCell>
        <mxCell id="olElqUPnL_aV7rSpQFlY-36" value="" style="line;strokeWidth=1;fillColor=none;align=left;verticalAlign=middle;spacingTop=-1;spacingLeft=3;spacingRight=3;rotatable=0;labelPosition=right;points=[];portConstraint=eastwest;" parent="olElqUPnL_aV7rSpQFlY-34" vertex="1">
          <mxGeometry y="52" width="160" height="8" as="geometry"/>
        </mxCell>
        <mxCell id="olElqUPnL_aV7rSpQFlY-37" value="+ method(type): type" style="text;strokeColor=none;fillColor=none;align=left;verticalAlign=top;spacingLeft=4;spacingRight=4;overflow=hidden;rotatable=0;points=[[0,0.5],[1,0.5]];portConstraint=eastwest;" parent="olElqUPnL_aV7rSpQFlY-34" vertex="1">
          <mxGeometry y="60" width="160" height="26" as="geometry"/>
        </mxCell>
        <mxCell id="olElqUPnL_aV7rSpQFlY-38" value="Classname" style="swimlane;fontStyle=1;align=center;verticalAlign=top;childLayout=stackLayout;horizontal=1;startSize=26;horizontalStack=0;resizeParent=1;resizeParentMax=0;resizeLast=0;collapsible=1;marginBottom=0;" parent="1" vertex="1">
          <mxGeometry x="370" y="730" width="160" height="86" as="geometry"/>
        </mxCell>
        <mxCell id="olElqUPnL_aV7rSpQFlY-39" value="+ field: type" style="text;strokeColor=none;fillColor=none;align=left;verticalAlign=top;spacingLeft=4;spacingRight=4;overflow=hidden;rotatable=0;points=[[0,0.5],[1,0.5]];portConstraint=eastwest;" parent="olElqUPnL_aV7rSpQFlY-38" vertex="1">
          <mxGeometry y="26" width="160" height="26" as="geometry"/>
        </mxCell>
        <mxCell id="olElqUPnL_aV7rSpQFlY-40" value="" style="line;strokeWidth=1;fillColor=none;align=left;verticalAlign=middle;spacingTop=-1;spacingLeft=3;spacingRight=3;rotatable=0;labelPosition=right;points=[];portConstraint=eastwest;" parent="olElqUPnL_aV7rSpQFlY-38" vertex="1">
          <mxGeometry y="52" width="160" height="8" as="geometry"/>
        </mxCell>
        <mxCell id="olElqUPnL_aV7rSpQFlY-41" value="+ method(type): type" style="text;strokeColor=none;fillColor=none;align=left;verticalAlign=top;spacingLeft=4;spacingRight=4;overflow=hidden;rotatable=0;points=[[0,0.5],[1,0.5]];portConstraint=eastwest;" parent="olElqUPnL_aV7rSpQFlY-38" vertex="1">
          <mxGeometry y="60" width="160" height="26" as="geometry"/>
        </mxCell>
        <mxCell id="olElqUPnL_aV7rSpQFlY-42" value="Classname" style="swimlane;fontStyle=1;align=center;verticalAlign=top;childLayout=stackLayout;horizontal=1;startSize=26;horizontalStack=0;resizeParent=1;resizeParentMax=0;resizeLast=0;collapsible=1;marginBottom=0;" parent="1" vertex="1">
          <mxGeometry x="550" y="730" width="160" height="86" as="geometry"/>
        </mxCell>
        <mxCell id="olElqUPnL_aV7rSpQFlY-43" value="+ field: type" style="text;strokeColor=none;fillColor=none;align=left;verticalAlign=top;spacingLeft=4;spacingRight=4;overflow=hidden;rotatable=0;points=[[0,0.5],[1,0.5]];portConstraint=eastwest;" parent="olElqUPnL_aV7rSpQFlY-42" vertex="1">
          <mxGeometry y="26" width="160" height="26" as="geometry"/>
        </mxCell>
        <mxCell id="olElqUPnL_aV7rSpQFlY-44" value="" style="line;strokeWidth=1;fillColor=none;align=left;verticalAlign=middle;spacingTop=-1;spacingLeft=3;spacingRight=3;rotatable=0;labelPosition=right;points=[];portConstraint=eastwest;" parent="olElqUPnL_aV7rSpQFlY-42" vertex="1">
          <mxGeometry y="52" width="160" height="8" as="geometry"/>
        </mxCell>
        <mxCell id="olElqUPnL_aV7rSpQFlY-45" value="+ method(type): type" style="text;strokeColor=none;fillColor=none;align=left;verticalAlign=top;spacingLeft=4;spacingRight=4;overflow=hidden;rotatable=0;points=[[0,0.5],[1,0.5]];portConstraint=eastwest;" parent="olElqUPnL_aV7rSpQFlY-42" vertex="1">
          <mxGeometry y="60" width="160" height="26" as="geometry"/>
        </mxCell>
        <mxCell id="olElqUPnL_aV7rSpQFlY-46" value="Classname" style="swimlane;fontStyle=1;align=center;verticalAlign=top;childLayout=stackLayout;horizontal=1;startSize=26;horizontalStack=0;resizeParent=1;resizeParentMax=0;resizeLast=0;collapsible=1;marginBottom=0;" parent="1" vertex="1">
          <mxGeometry x="190" y="730" width="160" height="86" as="geometry"/>
        </mxCell>
        <mxCell id="olElqUPnL_aV7rSpQFlY-47" value="+ field: type" style="text;strokeColor=none;fillColor=none;align=left;verticalAlign=top;spacingLeft=4;spacingRight=4;overflow=hidden;rotatable=0;points=[[0,0.5],[1,0.5]];portConstraint=eastwest;" parent="olElqUPnL_aV7rSpQFlY-46" vertex="1">
          <mxGeometry y="26" width="160" height="26" as="geometry"/>
        </mxCell>
        <mxCell id="olElqUPnL_aV7rSpQFlY-48" value="" style="line;strokeWidth=1;fillColor=none;align=left;verticalAlign=middle;spacingTop=-1;spacingLeft=3;spacingRight=3;rotatable=0;labelPosition=right;points=[];portConstraint=eastwest;" parent="olElqUPnL_aV7rSpQFlY-46" vertex="1">
          <mxGeometry y="52" width="160" height="8" as="geometry"/>
        </mxCell>
        <mxCell id="olElqUPnL_aV7rSpQFlY-49" value="+ method(type): type" style="text;strokeColor=none;fillColor=none;align=left;verticalAlign=top;spacingLeft=4;spacingRight=4;overflow=hidden;rotatable=0;points=[[0,0.5],[1,0.5]];portConstraint=eastwest;" parent="olElqUPnL_aV7rSpQFlY-46" vertex="1">
          <mxGeometry y="60" width="160" height="26" as="geometry"/>
        </mxCell>
        <mxCell id="olElqUPnL_aV7rSpQFlY-50" value="Classname" style="swimlane;fontStyle=1;align=center;verticalAlign=top;childLayout=stackLayout;horizontal=1;startSize=26;horizontalStack=0;resizeParent=1;resizeParentMax=0;resizeLast=0;collapsible=1;marginBottom=0;" parent="1" vertex="1">
          <mxGeometry x="10" y="730" width="160" height="86" as="geometry"/>
        </mxCell>
        <mxCell id="olElqUPnL_aV7rSpQFlY-51" value="+ field: type" style="text;strokeColor=none;fillColor=none;align=left;verticalAlign=top;spacingLeft=4;spacingRight=4;overflow=hidden;rotatable=0;points=[[0,0.5],[1,0.5]];portConstraint=eastwest;" parent="olElqUPnL_aV7rSpQFlY-50" vertex="1">
          <mxGeometry y="26" width="160" height="26" as="geometry"/>
        </mxCell>
        <mxCell id="olElqUPnL_aV7rSpQFlY-52" value="" style="line;strokeWidth=1;fillColor=none;align=left;verticalAlign=middle;spacingTop=-1;spacingLeft=3;spacingRight=3;rotatable=0;labelPosition=right;points=[];portConstraint=eastwest;" parent="olElqUPnL_aV7rSpQFlY-50" vertex="1">
          <mxGeometry y="52" width="160" height="8" as="geometry"/>
        </mxCell>
        <mxCell id="olElqUPnL_aV7rSpQFlY-53" value="+ method(type): type" style="text;strokeColor=none;fillColor=none;align=left;verticalAlign=top;spacingLeft=4;spacingRight=4;overflow=hidden;rotatable=0;points=[[0,0.5],[1,0.5]];portConstraint=eastwest;" parent="olElqUPnL_aV7rSpQFlY-50" vertex="1">
          <mxGeometry y="60" width="160" height="26" as="geometry"/>
        </mxCell>
        <mxCell id="olElqUPnL_aV7rSpQFlY-58" value="Extends" style="endArrow=block;endSize=16;endFill=0;html=1;exitX=0.5;exitY=0;exitDx=0;exitDy=0;entryX=-0.006;entryY=1.154;entryDx=0;entryDy=0;entryPerimeter=0;" parent="1" source="olElqUPnL_aV7rSpQFlY-50" target="olElqUPnL_aV7rSpQFlY-37" edge="1">
          <mxGeometry width="160" relative="1" as="geometry">
            <mxPoint x="80" y="670" as="sourcePoint"/>
            <mxPoint x="240" y="670" as="targetPoint"/>
          </mxGeometry>
        </mxCell>
        <mxCell id="olElqUPnL_aV7rSpQFlY-59" value="Extends" style="endArrow=block;endSize=16;endFill=0;html=1;exitX=0.5;exitY=0;exitDx=0;exitDy=0;entryX=0.431;entryY=1.115;entryDx=0;entryDy=0;entryPerimeter=0;" parent="1" source="olElqUPnL_aV7rSpQFlY-46" target="olElqUPnL_aV7rSpQFlY-37" edge="1">
          <mxGeometry width="160" relative="1" as="geometry">
            <mxPoint x="250" y="680" as="sourcePoint"/>
            <mxPoint x="410" y="680" as="targetPoint"/>
          </mxGeometry>
        </mxCell>
        <mxCell id="olElqUPnL_aV7rSpQFlY-60" value="Extends" style="endArrow=block;endSize=16;endFill=0;html=1;exitX=0.5;exitY=0;exitDx=0;exitDy=0;" parent="1" source="olElqUPnL_aV7rSpQFlY-38" edge="1">
          <mxGeometry width="160" relative="1" as="geometry">
            <mxPoint x="380" y="690" as="sourcePoint"/>
            <mxPoint x="380" y="640" as="targetPoint"/>
          </mxGeometry>
        </mxCell>
        <mxCell id="olElqUPnL_aV7rSpQFlY-61" value="Extends" style="endArrow=block;endSize=16;endFill=0;html=1;exitX=0.438;exitY=-0.012;exitDx=0;exitDy=0;exitPerimeter=0;entryX=1.025;entryY=1.154;entryDx=0;entryDy=0;entryPerimeter=0;" parent="1" source="olElqUPnL_aV7rSpQFlY-42" target="olElqUPnL_aV7rSpQFlY-37" edge="1">
          <mxGeometry width="160" relative="1" as="geometry">
            <mxPoint x="590" y="710" as="sourcePoint"/>
            <mxPoint x="750" y="710" as="targetPoint"/>
          </mxGeometry>
        </mxCell>
        <mxCell id="olElqUPnL_aV7rSpQFlY-66" value="BombermanView" style="swimlane;fontStyle=1;align=center;verticalAlign=top;childLayout=stackLayout;horizontal=1;startSize=26;horizontalStack=0;resizeParent=1;resizeParentMax=0;resizeLast=0;collapsible=1;marginBottom=0;" parent="1" vertex="1">
          <mxGeometry x="560" y="276" width="160" height="86" as="geometry"/>
        </mxCell>
        <mxCell id="olElqUPnL_aV7rSpQFlY-67" value="+ field: type" style="text;strokeColor=none;fillColor=none;align=left;verticalAlign=top;spacingLeft=4;spacingRight=4;overflow=hidden;rotatable=0;points=[[0,0.5],[1,0.5]];portConstraint=eastwest;" parent="olElqUPnL_aV7rSpQFlY-66" vertex="1">
          <mxGeometry y="26" width="160" height="26" as="geometry"/>
        </mxCell>
        <mxCell id="olElqUPnL_aV7rSpQFlY-68" value="" style="line;strokeWidth=1;fillColor=none;align=left;verticalAlign=middle;spacingTop=-1;spacingLeft=3;spacingRight=3;rotatable=0;labelPosition=right;points=[];portConstraint=eastwest;" parent="olElqUPnL_aV7rSpQFlY-66" vertex="1">
          <mxGeometry y="52" width="160" height="8" as="geometry"/>
        </mxCell>
        <mxCell id="olElqUPnL_aV7rSpQFlY-69" value="+ method(type): type" style="text;strokeColor=none;fillColor=none;align=left;verticalAlign=top;spacingLeft=4;spacingRight=4;overflow=hidden;rotatable=0;points=[[0,0.5],[1,0.5]];portConstraint=eastwest;" parent="olElqUPnL_aV7rSpQFlY-66" vertex="1">
          <mxGeometry y="60" width="160" height="26" as="geometry"/>
        </mxCell>
        <mxCell id="olElqUPnL_aV7rSpQFlY-71" value="PanelBomberman" style="swimlane;fontStyle=1;align=center;verticalAlign=top;childLayout=stackLayout;horizontal=1;startSize=26;horizontalStack=0;resizeParent=1;resizeParentMax=0;resizeLast=0;collapsible=1;marginBottom=0;" parent="1" vertex="1">
          <mxGeometry x="470" y="446" width="160" height="86" as="geometry"/>
        </mxCell>
        <mxCell id="olElqUPnL_aV7rSpQFlY-72" value="+ field: type" style="text;strokeColor=none;fillColor=none;align=left;verticalAlign=top;spacingLeft=4;spacingRight=4;overflow=hidden;rotatable=0;points=[[0,0.5],[1,0.5]];portConstraint=eastwest;" parent="olElqUPnL_aV7rSpQFlY-71" vertex="1">
          <mxGeometry y="26" width="160" height="26" as="geometry"/>
        </mxCell>
        <mxCell id="olElqUPnL_aV7rSpQFlY-73" value="" style="line;strokeWidth=1;fillColor=none;align=left;verticalAlign=middle;spacingTop=-1;spacingLeft=3;spacingRight=3;rotatable=0;labelPosition=right;points=[];portConstraint=eastwest;" parent="olElqUPnL_aV7rSpQFlY-71" vertex="1">
          <mxGeometry y="52" width="160" height="8" as="geometry"/>
        </mxCell>
        <mxCell id="olElqUPnL_aV7rSpQFlY-74" value="+ method(type): type" style="text;strokeColor=none;fillColor=none;align=left;verticalAlign=top;spacingLeft=4;spacingRight=4;overflow=hidden;rotatable=0;points=[[0,0.5],[1,0.5]];portConstraint=eastwest;" parent="olElqUPnL_aV7rSpQFlY-71" vertex="1">
          <mxGeometry y="60" width="160" height="26" as="geometry"/>
        </mxCell>
        <mxCell id="olElqUPnL_aV7rSpQFlY-75" value="CommandPanel" style="swimlane;fontStyle=1;align=center;verticalAlign=top;childLayout=stackLayout;horizontal=1;startSize=26;horizontalStack=0;resizeParent=1;resizeParentMax=0;resizeLast=0;collapsible=1;marginBottom=0;" parent="1" vertex="1">
          <mxGeometry x="670" y="446" width="160" height="86" as="geometry"/>
        </mxCell>
        <mxCell id="olElqUPnL_aV7rSpQFlY-76" value="+ field: type" style="text;strokeColor=none;fillColor=none;align=left;verticalAlign=top;spacingLeft=4;spacingRight=4;overflow=hidden;rotatable=0;points=[[0,0.5],[1,0.5]];portConstraint=eastwest;" parent="olElqUPnL_aV7rSpQFlY-75" vertex="1">
          <mxGeometry y="26" width="160" height="26" as="geometry"/>
        </mxCell>
        <mxCell id="olElqUPnL_aV7rSpQFlY-77" value="" style="line;strokeWidth=1;fillColor=none;align=left;verticalAlign=middle;spacingTop=-1;spacingLeft=3;spacingRight=3;rotatable=0;labelPosition=right;points=[];portConstraint=eastwest;" parent="olElqUPnL_aV7rSpQFlY-75" vertex="1">
          <mxGeometry y="52" width="160" height="8" as="geometry"/>
        </mxCell>
        <mxCell id="olElqUPnL_aV7rSpQFlY-78" value="+ method(type): type" style="text;strokeColor=none;fillColor=none;align=left;verticalAlign=top;spacingLeft=4;spacingRight=4;overflow=hidden;rotatable=0;points=[[0,0.5],[1,0.5]];portConstraint=eastwest;" parent="olElqUPnL_aV7rSpQFlY-75" vertex="1">
          <mxGeometry y="60" width="160" height="26" as="geometry"/>
        </mxCell>
        <mxCell id="olElqUPnL_aV7rSpQFlY-79" value="Use" style="endArrow=open;endSize=12;dashed=1;html=1;entryX=0.5;entryY=0;entryDx=0;entryDy=0;exitX=0.525;exitY=1.115;exitDx=0;exitDy=0;exitPerimeter=0;" parent="1" source="olElqUPnL_aV7rSpQFlY-69" target="olElqUPnL_aV7rSpQFlY-75" edge="1">
          <mxGeometry width="160" relative="1" as="geometry">
            <mxPoint x="620" y="403.5" as="sourcePoint"/>
            <mxPoint x="780" y="403.5" as="targetPoint"/>
          </mxGeometry>
        </mxCell>
        <mxCell id="olElqUPnL_aV7rSpQFlY-80" value="Use" style="endArrow=open;endSize=12;dashed=1;html=1;exitX=0.5;exitY=1.077;exitDx=0;exitDy=0;exitPerimeter=0;entryX=0.5;entryY=0;entryDx=0;entryDy=0;" parent="1" source="olElqUPnL_aV7rSpQFlY-69" target="olElqUPnL_aV7rSpQFlY-71" edge="1">
          <mxGeometry width="160" relative="1" as="geometry">
            <mxPoint x="540" y="406" as="sourcePoint"/>
            <mxPoint x="700" y="406" as="targetPoint"/>
          </mxGeometry>
        </mxCell>
        <mxCell id="olElqUPnL_aV7rSpQFlY-82" value="Use" style="endArrow=open;endSize=12;dashed=1;html=1;exitX=-0.012;exitY=0.846;exitDx=0;exitDy=0;exitPerimeter=0;entryX=1.006;entryY=0.769;entryDx=0;entryDy=0;entryPerimeter=0;" parent="1" source="olElqUPnL_aV7rSpQFlY-25" target="olElqUPnL_aV7rSpQFlY-10" edge="1">
          <mxGeometry width="160" relative="1" as="geometry">
            <mxPoint x="190" y="311" as="sourcePoint"/>
            <mxPoint x="350" y="311" as="targetPoint"/>
          </mxGeometry>
        </mxCell>
        <mxCell id="olElqUPnL_aV7rSpQFlY-83" value="Use" style="endArrow=open;endSize=12;dashed=1;html=1;exitX=1.019;exitY=0.769;exitDx=0;exitDy=0;exitPerimeter=0;" parent="1" source="olElqUPnL_aV7rSpQFlY-25" edge="1">
          <mxGeometry width="160" relative="1" as="geometry">
            <mxPoint x="450" y="240" as="sourcePoint"/>
            <mxPoint x="560" y="320" as="targetPoint"/>
          </mxGeometry>
        </mxCell>
        <mxCell id="olElqUPnL_aV7rSpQFlY-85" value="InfoAgent" style="swimlane;fontStyle=1;align=center;verticalAlign=top;childLayout=stackLayout;horizontal=1;startSize=26;horizontalStack=0;resizeParent=1;resizeParentMax=0;resizeLast=0;collapsible=1;marginBottom=0;" parent="1" vertex="1">
          <mxGeometry x="280" y="390" width="160" height="86" as="geometry"/>
        </mxCell>
        <mxCell id="olElqUPnL_aV7rSpQFlY-86" value="+ field: type" style="text;strokeColor=none;fillColor=none;align=left;verticalAlign=top;spacingLeft=4;spacingRight=4;overflow=hidden;rotatable=0;points=[[0,0.5],[1,0.5]];portConstraint=eastwest;" parent="olElqUPnL_aV7rSpQFlY-85" vertex="1">
          <mxGeometry y="26" width="160" height="26" as="geometry"/>
        </mxCell>
        <mxCell id="olElqUPnL_aV7rSpQFlY-87" value="" style="line;strokeWidth=1;fillColor=none;align=left;verticalAlign=middle;spacingTop=-1;spacingLeft=3;spacingRight=3;rotatable=0;labelPosition=right;points=[];portConstraint=eastwest;" parent="olElqUPnL_aV7rSpQFlY-85" vertex="1">
          <mxGeometry y="52" width="160" height="8" as="geometry"/>
        </mxCell>
        <mxCell id="olElqUPnL_aV7rSpQFlY-88" value="+ method(type): type" style="text;strokeColor=none;fillColor=none;align=left;verticalAlign=top;spacingLeft=4;spacingRight=4;overflow=hidden;rotatable=0;points=[[0,0.5],[1,0.5]];portConstraint=eastwest;" parent="olElqUPnL_aV7rSpQFlY-85" vertex="1">
          <mxGeometry y="60" width="160" height="26" as="geometry"/>
        </mxCell>
        <mxCell id="olElqUPnL_aV7rSpQFlY-89" value="Extends" style="endArrow=block;endSize=16;endFill=0;html=1;exitX=0.5;exitY=0;exitDx=0;exitDy=0;" parent="1" source="olElqUPnL_aV7rSpQFlY-34" edge="1">
          <mxGeometry width="160" relative="1" as="geometry">
            <mxPoint x="320" y="500" as="sourcePoint"/>
            <mxPoint x="360" y="480" as="targetPoint"/>
          </mxGeometry>
        </mxCell>
        <mxCell id="LfSwcu0L7vIEiYzTEpRB-1" value="Use" style="endArrow=open;endSize=12;dashed=1;html=1;entryX=0;entryY=0.5;entryDx=0;entryDy=0;" edge="1" parent="1" target="olElqUPnL_aV7rSpQFlY-12">
          <mxGeometry width="160" relative="1" as="geometry">
            <mxPoint x="-200" y="240" as="sourcePoint"/>
            <mxPoint x="190.96000000000004" y="331.9939999999999" as="targetPoint"/>
          </mxGeometry>
        </mxCell>
        <mxCell id="LfSwcu0L7vIEiYzTEpRB-2" value="AgentStrategie" style="swimlane;fontStyle=1;align=center;verticalAlign=top;childLayout=stackLayout;horizontal=1;startSize=26;horizontalStack=0;resizeParent=1;resizeParentMax=0;resizeLast=0;collapsible=1;marginBottom=0;" vertex="1" parent="1">
          <mxGeometry x="-360" y="192" width="160" height="86" as="geometry"/>
        </mxCell>
        <mxCell id="LfSwcu0L7vIEiYzTEpRB-3" value="+ field: type" style="text;strokeColor=none;fillColor=none;align=left;verticalAlign=top;spacingLeft=4;spacingRight=4;overflow=hidden;rotatable=0;points=[[0,0.5],[1,0.5]];portConstraint=eastwest;" vertex="1" parent="LfSwcu0L7vIEiYzTEpRB-2">
          <mxGeometry y="26" width="160" height="26" as="geometry"/>
        </mxCell>
        <mxCell id="LfSwcu0L7vIEiYzTEpRB-4" value="" style="line;strokeWidth=1;fillColor=none;align=left;verticalAlign=middle;spacingTop=-1;spacingLeft=3;spacingRight=3;rotatable=0;labelPosition=right;points=[];portConstraint=eastwest;" vertex="1" parent="LfSwcu0L7vIEiYzTEpRB-2">
          <mxGeometry y="52" width="160" height="8" as="geometry"/>
        </mxCell>
        <mxCell id="LfSwcu0L7vIEiYzTEpRB-5" value="+ method(type): type" style="text;strokeColor=none;fillColor=none;align=left;verticalAlign=top;spacingLeft=4;spacingRight=4;overflow=hidden;rotatable=0;points=[[0,0.5],[1,0.5]];portConstraint=eastwest;" vertex="1" parent="LfSwcu0L7vIEiYzTEpRB-2">
          <mxGeometry y="60" width="160" height="26" as="geometry"/>
        </mxCell>
      </root>
    </mxGraphModel>
  </diagram>
</mxfile>
